<?xml version="1.0" encoding="UTF-8" standalone="no"?>
<svg
   xmlns:dc="http://purl.org/dc/elements/1.1/"
   xmlns:cc="http://creativecommons.org/ns#"
   xmlns:rdf="http://www.w3.org/1999/02/22-rdf-syntax-ns#"
   xmlns:svg="http://www.w3.org/2000/svg"
   xmlns="http://www.w3.org/2000/svg"
   xmlns:sodipodi="http://sodipodi.sourceforge.net/DTD/sodipodi-0.dtd"
   xmlns:inkscape="http://www.inkscape.org/namespaces/inkscape"
   width="532pt"
   height="607pt"
   viewBox="0 0 532 607"
   version="1.1"
   id="svg43"
   sodipodi:docname="origami.svg"
   inkscape:version="0.92.5 (2060ec1f9f, 2020-04-08)">
  <metadata
     id="metadata49">
    <rdf:RDF>
      <cc:Work
         rdf:about="">
        <dc:format>image/svg+xml</dc:format>
        <dc:type
           rdf:resource="http://purl.org/dc/dcmitype/StillImage" />
      </cc:Work>
    </rdf:RDF>
  </metadata>
  <defs
     id="defs47" />
  <sodipodi:namedview
     pagecolor="#ffffff"
     bordercolor="#666666"
     borderopacity="1"
     objecttolerance="10"
     gridtolerance="10"
     guidetolerance="10"
     inkscape:pageopacity="0"
     inkscape:pageshadow="2"
     inkscape:window-width="1843"
     inkscape:window-height="1003"
     id="namedview45"
     showgrid="false"
     inkscape:zoom="0.29159802"
     inkscape:cx="354.66667"
     inkscape:cy="404.66667"
     inkscape:window-x="60"
     inkscape:window-y="27"
     inkscape:window-maximized="0"
     inkscape:current-layer="svg43" />
  <path
     inkscape:connector-curvature="0"
     id="path2"
     d="M 0.5625,0.664063 H 531.85547 V 606.59766 H 0.5625 V 0.664063"
     style="fill:#070f23;fill-opacity:1;fill-rule:evenodd;stroke:none" />
  <path
     inkscape:connector-curvature="0"
     id="path4"
     d="m 0.5625,0.66406 h 531.29297 v 605.9336 H 0.5625 Z m 0,0"
     style="fill:none;stroke:#211e1e;stroke-width:0.21600001;stroke-linecap:butt;stroke-linejoin:miter;stroke-miterlimit:2.61313009;stroke-opacity:1" />
  <path
     inkscape:connector-curvature="0"
     id="path6"
     d="m 335.45703,135.50391 13.01953,0.65234 -2,-17.83203 -10.51562,5.17187 z m 10.62109,-20.30078 -2.28906,-20.804692 -6.74609,3.320312 -0.86328,22.49609 z m -2.55859,-23.945317 -1.82812,-14.488282 -3.80079,1.742188 -0.76171,16 z m -2.03906,-17.449219 -2.34375,-20.914063 c -0.0195,-0.117187 -0.20703,-0.07031 -0.21485,0.03516 l -0.94531,22.574218 3.50391,-1.695312"
     style="fill:#ffffff;fill-opacity:1;fill-rule:evenodd;stroke:none" />
  <path
     inkscape:connector-curvature="0"
     id="path8"
     d="m 291.22266,163.11328 2.42187,36.99219 8.30078,30.17578 17.42188,62.07422 2.96484,-6.22656 39.89453,8.76171 1.92188,-25.0625 -15.59766,-56.27734 -23.25,-72.59766 -34.07812,22.16016"
     style="fill:#ffffff;fill-opacity:1;fill-rule:evenodd;stroke:none" />
  <path
     inkscape:connector-curvature="0"
     id="path10"
     d="m 222.64453,373 -63.67578,-0.0859 6.27734,139.55469 z m 0,0"
     style="fill:#ffffff;fill-opacity:1;fill-rule:evenodd;stroke:none" />
  <path
     inkscape:connector-curvature="0"
     id="path12"
     d="m 142.06641,311.87891 42.78906,15.89843 86.44922,31.25391 c 8.48437,3.01953 37.99218,14.36328 44.34375,15.64844 l 0.22656,-15.49219 -42.48438,-13.19531 -3.46875,-7.76953 -30.68359,-13.3086 1.32813,-27.28515 -70.98047,0.004 -27.51953,14.2461"
     style="fill:#ffffff;fill-opacity:1;fill-rule:evenodd;stroke:none" />
  <path
     inkscape:connector-curvature="0"
     id="path14"
     d="m 344.34375,385.30078 131,48.81641 -109.78906,-100.72266 -1.125,46.58203 -20.08594,5.32422"
     style="fill:#ffffff;fill-opacity:1;fill-rule:evenodd;stroke:none" />
  <path
     inkscape:connector-curvature="0"
     id="path16"
     d="m 148.36328,369.05078 78.65625,0.0273 5.90234,-19.5039 -93.78125,-34.05469 9.22266,53.53125"
     style="fill:#ffffff;fill-opacity:1;fill-rule:evenodd;stroke:none" />
  <path
     inkscape:connector-curvature="0"
     id="path18"
     d="m 47.976563,393.45312 92.453127,-48.46093 -5.98828,-33.81641 19.83203,-11.02734 13.82031,-6.48828 70.6875,-0.35547 c 0.19531,-0.0469 0.53516,-0.20313 0.6875,-0.2461 l 2.02734,-13.4414 -89.16797,10.42187 c -8.28906,7.23438 -102.808589,99.98047 -104.351557,103.41406"
     style="fill:#ffffff;fill-opacity:1;fill-rule:evenodd;stroke:none" />
  <path
     inkscape:connector-curvature="0"
     id="path20"
     d="m 277.62109,345.4375 59.92578,15.98828 c -6.61328,-9.91406 -33.89453,-42.61719 -43.55468,-54.82031 -2.38672,-3.01172 -11.88672,-16.13672 -15.28907,-17.69141 l -1.08203,56.52344"
     style="fill:#ffffff;fill-opacity:1;fill-rule:evenodd;stroke:none" />
  <path
     inkscape:connector-curvature="0"
     id="path22"
     d="m 246.82031,273.10547 27.01563,63.49219 2.16015,-79.4961 z m 0,0"
     style="fill:#ffffff;fill-opacity:1;fill-rule:evenodd;stroke:none" />
  <path
     inkscape:connector-curvature="0"
     id="path24"
     d="m 339.0625,170.89453 41.3125,-13.81641 -2.73438,-16.44921 -48.125,-1.25 9.54688,31.51562"
     style="fill:#ffffff;fill-opacity:1;fill-rule:evenodd;stroke:none" />
  <path
     inkscape:connector-curvature="0"
     id="path26"
     d="m 279.33594,284.77734 21.23437,0.47266 12.92969,0.0234 -11.65625,-41.48047 -21.375,10.39453 -1.13281,30.58984"
     style="fill:#ffffff;fill-opacity:1;fill-rule:evenodd;stroke:none" />
  <path
     inkscape:connector-curvature="0"
     id="path28"
     d="m 343.62891,357.27734 13.84375,-59.64453 -31.5625,-7 z m 0,0"
     style="fill:#ffffff;fill-opacity:1;fill-rule:evenodd;stroke:none" />
  <path
     inkscape:connector-curvature="0"
     id="path30"
     d="m 362.23047,297.42578 c -0.63281,0.90234 -0.6211,0.80469 -1.26172,2.44922 l -7.17188,32.47266 c -2.26953,10.63281 -4.68359,25.09765 -7.84765,34.94921 l -9.20313,-2.17968 -13.89062,22.24218 37.63281,-10.52343 1.74219,-79.41016"
     style="fill:#ffffff;fill-opacity:1;fill-rule:evenodd;stroke:none" />
  <path
     inkscape:connector-curvature="0"
     id="path32"
     d="m 243.19922,322.94141 24.16015,10.35546 -22.18359,-51.52734 z m 0,0"
     style="fill:#ffffff;fill-opacity:1;fill-rule:evenodd;stroke:none" />
  <path
     inkscape:connector-curvature="0"
     id="path34"
     d="m 322.76562,336.15625 -12.36718,-21.93359 7.21875,-17.28516 -3.19922,-7.77344 -29.48438,-0.42578 c 1.44922,3.14063 1.11328,2.23438 3.23047,4.85547 l 19.85156,24.71484 13.85547,17.40235 c 0.16797,0.23828 0.33594,0.47656 0.50782,0.71484 0.41796,0.46484 0.71484,0.42578 0.38671,-0.26953"
     style="fill:#ffffff;fill-opacity:1;fill-rule:evenodd;stroke:none" />
  <path
     inkscape:connector-curvature="0"
     id="path36"
     d="m 339.39453,357.16797 -16.55469,-62.20703 -8.33984,19.375 6.55469,12.6289 18.33984,30.20313"
     style="fill:#ffffff;fill-opacity:1;fill-rule:evenodd;stroke:none" />
  <path
     inkscape:connector-curvature="0"
     id="path38"
     d="m 370.80078,332.78906 3.57422,-57.50781 -7.51172,-4.51953 -1.5,50.04687 -0.0781,7.65625 5.51562,4.32422"
     style="fill:#ffffff;fill-opacity:1;fill-rule:evenodd;stroke:none" />
  <path
     inkscape:connector-curvature="0"
     id="path40"
     d="m 319.01562,384.53516 13.875,-20.5 -13.09375,-3.26563 z m 0,0"
     style="fill:#ffffff;fill-opacity:1;fill-rule:evenodd;stroke:none" />
</svg>
